HIERARCHY
ROOT Pelvis
{
	OFFSET 0.000000 0.000000 0.000000
	CHANNELS 6 Xposition Yposition Zposition Xrotation Yrotation Zrotation
	JOINT LeftUpLeg_virtual
	{
		OFFSET 0.000000 0.000000 0.000000
		CHANNELS 3 Xrotation Yrotation Zrotation
		JOINT LeftUpLeg
		{
			OFFSET 18.735201 -5.666702 -4.541200
			CHANNELS 3 Xrotation Yrotation Zrotation
			JOINT LeftLeg
			{
				OFFSET -0.021200 -31.938179 0.493100
				CHANNELS 3 Xrotation Yrotation Zrotation
				JOINT LeftFoot
				{
					OFFSET 0.021200 -31.938179 -4.336299
					CHANNELS 3 Xrotation Yrotation Zrotation
					JOINT LeftToeBase
					{
						OFFSET 0.943001 -26.722000 15.023500
						CHANNELS 3 Xrotation Yrotation Zrotation
						End Site
						{
							OFFSET 0 0 0
						}
					}
				}
			}
		}
	}
	JOINT RightUpLeg_virtual
	{
		OFFSET 0.000000 0.000000 0.000000
		CHANNELS 3 Xrotation Yrotation Zrotation
		JOINT RightUpLeg
		{
			OFFSET -18.735201 -5.666702 -4.541200
			CHANNELS 3 Xrotation Yrotation Zrotation
			JOINT RightLeg
			{
				OFFSET 0.018946 -31.938133 0.493100
				CHANNELS 3 Xrotation Yrotation Zrotation
				JOINT RightFoot
				{
					OFFSET -0.018946 -31.938126 -4.336299
					CHANNELS 3 Xrotation Yrotation Zrotation
					JOINT RightToeBase
					{
						OFFSET -0.943001 -26.722004 15.023500
						CHANNELS 3 Xrotation Yrotation Zrotation
						End Site
						{
							OFFSET 0 0 0
						}
					}
				}
			}
		}
	}
	JOINT Hips_virtual
	{
		OFFSET 0.000000 0.000000 0.000000
		CHANNELS 3 Xrotation Yrotation Zrotation
		JOINT Hips
		{
			OFFSET -0.000000 -0.000000 -0.000000
			CHANNELS 3 Xrotation Yrotation Zrotation
			JOINT Spine
			{
				OFFSET 0.000000 10.199997 -0.299500
				CHANNELS 3 Xrotation Yrotation Zrotation
				JOINT Spine1
				{
					OFFSET 0.000000 11.900002 -1.516600
					CHANNELS 3 Xrotation Yrotation Zrotation
					JOINT Spine2
					{
						OFFSET 0.000000 13.600006 -2.842500
						CHANNELS 3 Xrotation Yrotation Zrotation
						JOINT Neck_virtual
						{
							OFFSET 0.000000 0.000000 0.000000
							CHANNELS 3 Xrotation Yrotation Zrotation
							JOINT Neck
							{
								OFFSET 0.000000 9.624100 -2.890100
								CHANNELS 3 Xrotation Yrotation Zrotation
								JOINT Head
								{
									OFFSET 0.000000 14.068802 -1.351900
									CHANNELS 3 Xrotation Yrotation Zrotation
									End Site
									{
										OFFSET 0 0 0
									}
								}
							}
						}
						JOINT LeftShoulder_virtual
						{
							OFFSET 0.000000 0.000000 0.000000
							CHANNELS 3 Xrotation Yrotation Zrotation
							JOINT LeftShoulder
							{
								OFFSET 15.263000 10.923401 -0.547700
								CHANNELS 3 Xrotation Yrotation Zrotation
								JOINT LeftArm
								{
									OFFSET 25.438599 -2.830597 -13.032500
									CHANNELS 3 Xrotation Yrotation Zrotation
									JOINT LeftForeArm
									{
										OFFSET 29.960503 0.000000 0.000000
										CHANNELS 3 Xrotation Yrotation Zrotation
										JOINT LeftHand
										{
											OFFSET 27.849251 0.000000 0.000000
											CHANNELS 3 Xrotation Yrotation Zrotation
											End Site
											{
												OFFSET 0 0 0
											}
										}
									}
								}
							}
						}
						JOINT RightShoulder_virtual
						{
							OFFSET 0.000000 0.000000 0.000000
							CHANNELS 3 Xrotation Yrotation Zrotation
							JOINT RightShoulder
							{
								OFFSET -15.263000 10.923401 -0.547700
								CHANNELS 3 Xrotation Yrotation Zrotation
								JOINT RightArm
								{
									OFFSET -25.438599 -2.830597 -13.032500
									CHANNELS 3 Xrotation Yrotation Zrotation
									JOINT RightForeArm
									{
										OFFSET -29.960503 0.000000 0.000000
										CHANNELS 3 Xrotation Yrotation Zrotation
										JOINT RightHand
										{
											OFFSET -27.849251 0.000000 0.000000
											CHANNELS 3 Xrotation Yrotation Zrotation
											End Site
											{
												OFFSET 0 0 0
											}
										}
									}
								}
							}
						}
					}
				}
			}
		}
	}
}
MOTION
Frames: 8
Frame Time: 0.03333333
0.820040 83.916527 0.376548 0.000000 0.000000 0.000000 4.584555 -11.246468 0.931039 -36.148414 7.294131 17.393567 46.982839 -3.012768 -2.922762 -6.996036 -1.538670 -11.576598 0.000000 0.000000 0.000000 -0.817972 -1.463606 -1.789775 -31.976634 -3.449037 -16.937981 42.297149 2.320137 0.871230 -12.364437 -2.122462 14.538928 0.000000 0.000000 0.000000 -1.600959 -1.063876 0.168808 -2.199690 10.416488 -1.843503 14.126517 -0.429805 0.712629 6.235128 0.059251 0.478818 0.000000 0.000000 0.000000 3.260838 -0.252092 0.204267 -0.345166 0.148809 -0.060597 0.000000 0.000000 0.000000 8.155564 -0.279709 0.313253 4.828566 -7.444527 -6.188462 5.797222 -31.704468 -31.904613 20.935380 -62.325736 16.749237 0.000000 0.000000 0.000000 9.240052 -1.059098 2.318051 7.136971 1.012150 14.330370 13.731822 32.622496 33.069713 45.232877 77.201908 -40.734473 0.000000 0.000000 0.000000 
0.821731 83.945915 0.350930 0.000000 0.000000 0.000000 4.632554 -11.267146 0.985938 -36.088568 7.279372 17.444228 46.909295 -3.036410 -2.923532 -7.096030 -1.548570 -11.598281 0.000000 0.000000 0.000000 -0.808574 -1.304002 -1.779911 -31.945054 -3.411368 -16.906409 42.401049 2.305150 0.881227 -12.330355 -2.138693 14.535119 0.000000 0.000000 0.000000 -1.600199 -1.088436 0.177520 -2.150217 10.608852 -1.884617 14.188660 -0.458850 0.694762 6.261219 0.060982 0.491974 0.000000 0.000000 0.000000 3.257056 -0.268302 0.188902 -0.348071 0.156529 -0.071474 0.000000 0.000000 0.000000 8.140030 -0.299404 0.301934 4.789814 -7.449599 -6.233533 5.855302 -31.796320 -31.630439 21.178619 -62.400827 16.978220 0.000000 0.000000 0.000000 9.226348 -1.076328 2.335385 7.157010 0.842436 14.400395 13.623703 32.513357 33.071189 45.440292 77.366632 -40.976873 0.000000 0.000000 0.000000 
0.831787 84.005661 0.297378 0.000000 0.000000 0.000000 4.722741 -11.318256 1.080811 -35.974477 7.251695 17.528938 46.776124 -3.077946 -2.920414 -7.273999 -1.567423 -11.630864 0.000000 0.000000 0.000000 -0.789932 -1.001833 -1.763447 -31.885543 -3.339628 -16.849354 42.576572 2.280345 0.898436 -12.275645 -2.165524 14.527030 0.000000 0.000000 0.000000 -1.603187 -1.146052 0.198017 -2.075979 10.975317 -1.945224 14.301069 -0.507930 0.661001 6.313236 0.062055 0.513209 0.000000 0.000000 0.000000 3.252721 -0.295987 0.161477 -0.350448 0.170962 -0.091066 0.000000 0.000000 0.000000 8.104216 -0.338822 0.279329 4.709654 -7.465308 -6.312306 5.942433 -31.934440 -31.136162 21.583828 -62.523340 17.354609 0.000000 0.000000 0.000000 9.200582 -1.107605 2.364221 7.190861 0.531513 14.505116 13.368413 32.272395 33.117391 45.622453 77.648910 -41.218645 0.000000 0.000000 0.000000 
0.858775 84.095695 0.214845 0.000000 0.000000 0.000000 4.845327 -11.411554 1.191548 -35.814811 7.214818 17.620800 46.605294 -3.127339 -2.906030 -7.494237 -1.593130 -11.656778 0.000000 0.000000 0.000000 -0.762070 -0.590184 -1.745815 -31.803833 -3.241166 -16.777349 42.769890 2.253695 0.918704 -12.222758 -2.194521 14.514357 0.000000 0.000000 0.000000 -1.615524 -1.247188 0.234589 -2.014746 11.483099 -1.994986 14.444269 -0.562222 0.614168 6.388664 0.059065 0.534445 0.000000 0.000000 0.000000 3.254148 -0.327882 0.127332 -0.346326 0.190321 -0.115808 0.000000 0.000000 0.000000 8.040667 -0.397582 0.246079 4.585037 -7.502004 -6.405682 5.994379 -32.046145 -30.520168 22.008077 -62.650156 17.737554 0.000000 0.000000 0.000000 9.164845 -1.147316 2.394872 7.227840 0.127558 14.587370 12.897467 31.863123 33.279878 45.364071 77.975625 -41.030094 0.000000 0.000000 0.000000 
0.906938 84.212990 0.108321 0.000000 0.000000 0.000000 4.989814 -11.551730 1.293682 -35.617302 7.173906 17.692335 46.418054 -3.172699 -2.873319 -7.719651 -1.622203 -11.657767 0.000000 0.000000 0.000000 -0.723984 -0.114618 -1.732703 -31.704683 -3.126888 -16.702382 42.922343 2.232411 0.938389 -12.196097 -2.218486 14.497408 0.000000 0.000000 0.000000 -1.639696 -1.394508 0.289998 -2.001702 12.091150 -2.012383 14.597625 -0.606215 0.556473 6.480407 0.049514 0.547636 0.000000 0.000000 0.000000 3.270803 -0.357359 0.091975 -0.328436 0.212446 -0.141925 0.000000 0.000000 0.000000 7.942910 -0.474370 0.204296 4.415687 -7.573216 -6.491559 5.907748 -32.059313 -29.906550 22.281088 -62.739686 17.964745 0.000000 0.000000 0.000000 9.119961 -1.188785 2.416883 7.255582 -0.314982 14.587973 12.129615 31.247364 33.635239 44.176414 78.272452 -39.912545 0.000000 0.000000 0.000000 
0.972857 84.351669 -0.008239 0.000000 0.000000 0.000000 5.148743 -11.733382 1.370296 -35.384963 7.134343 17.724071 46.228045 -3.202973 -2.818321 -7.922179 -1.649892 -11.620521 0.000000 0.000000 0.000000 -0.672216 0.374086 -1.727646 -31.588013 -3.010251 -16.634132 42.986605 2.220001 0.955554 -12.215197 -2.234441 14.476835 0.000000 0.000000 0.000000 -1.673614 -1.574736 0.363213 -2.059554 12.756962 -1.995217 14.745123 -0.628702 0.488598 6.577045 0.033171 0.547238 0.000000 0.000000 0.000000 3.315662 -0.380868 0.059455 -0.289076 0.235281 -0.166568 0.000000 0.000000 0.000000 7.809574 -0.566735 0.158149 4.206285 -7.693569 -6.547904 5.547973 -31.925462 -29.421067 22.243875 -62.763284 17.892700 0.000000 0.000000 0.000000 9.064324 -1.225937 2.421902 7.263028 -0.747682 14.462420 10.991253 30.394383 34.241166 41.650087 78.474823 -37.456279 0.000000 0.000000 0.000000 
1.046977 84.505669 -0.112589 0.000000 0.000000 0.000000 5.320497 -11.946314 1.416130 -35.114436 7.099883 17.708830 46.040184 -3.210300 -2.741639 -8.086951 -1.671029 -11.540033 0.000000 0.000000 0.000000 -0.599798 0.829969 -1.729904 -31.446369 -2.905311 -16.576550 42.936915 2.215317 0.969881 -12.290271 -2.244157 14.452807 0.000000 0.000000 0.000000 -1.713205 -1.757755 0.448820 -2.198706 13.443253 -1.957038 14.878469 -0.625692 0.409921 6.666367 0.011981 0.531177 0.000000 0.000000 0.000000 3.405604 -0.398612 0.031500 -0.220273 0.257256 -0.188479 0.000000 0.000000 0.000000 7.646886 -0.671217 0.113778 3.966449 -7.876346 -6.553369 4.773270 -31.626604 -29.165973 21.778256 -62.704845 17.424683 0.000000 0.000000 0.000000 8.994287 -1.254751 2.405196 7.242565 -1.135792 14.187905 9.435887 29.284989 35.117551 37.601342 78.524048 -33.487209 0.000000 0.000000 0.000000 
1.118287 84.671822 -0.178321 0.000000 0.000000 0.000000 5.509620 -12.184722 1.437023 -34.797690 7.070980 17.651077 45.855715 -3.191462 -2.648144 -8.209503 -1.681433 -11.420053 0.000000 0.000000 0.000000 -0.496655 1.220777 -1.733481 -31.265577 -2.824437 -16.526225 42.771239 2.213725 0.981567 -12.420991 -2.252353 14.424099 0.000000 0.000000 0.000000 -1.756841 -1.904692 0.538310 -2.424543 14.122729 -1.912269 14.997034 -0.600281 0.319688 6.740384 -0.011350 0.500325 0.000000 0.000000 0.000000 3.561012 -0.413429 0.007381 -0.113612 0.277420 -0.208076 0.000000 0.000000 0.000000 7.468007 -0.783442 0.078453 3.708684 -8.130875 -6.486356 3.468929 -31.165013 -29.198980 20.821407 -62.551385 16.520865 0.000000 0.000000 0.000000 8.906133 -1.274008 2.365346 7.191014 -1.460456 13.760056 7.458569 27.913863 36.233839 32.161827 78.361381 -28.153143 0.000000 0.000000 0.000000 
